#!OML:ASF E:\Mandelcareful walks\Project 1\Capture day 1\Session 1\Subject1.ASF
:FULLY-SPECIFIED
:DEGREES
205
root -8.76414 2.71513 1.32671 143.319 84.2714 48.3582
lowerback -13.1057 -1.62465 2.49888
upperback 0.4426 -2.19567 -3.77429
thorax 7.59717 -0.863144 -5.88091
lowerneck -26.4036 18.2473 0.366702
upperneck 18.8822 30.9346 -19.9836
head 14.4731 11.2069 -0.877138
rclavicle -6.32135e-014 -4.15126e-014
rhumerus -49.0592 16.7194 -69.2431
rradius 115.107
rwrist -10.1965
rhand -59.5912 -73.0227
rfingers 7.12502
rthumb -31.7626 100.276
lclavicle -6.32135e-014 -4.15126e-014
lhumerus -30.1856 -15.9966 43.7681
lradius 103.968
lwrist 18.7732
lhand -53.5106 93.9316
lfingers 7.12502
lthumb -25.9548 -65.6838
rfemur -15.0412 -8.42259 17.4491
rtibia 33.585
rfoot -23.4955 -0.177781
rtoes -7.83293
lfemur -21.9622 12.1 -18.1438
ltibia 44.646
lfoot -26.5057 6.47607
ltoes -22.4094
206
root -8.79086 2.79985 1.33809 143.541 84.0199 49.0397
lowerback -12.2869 -1.84275 2.12158
upperback 0.647476 -2.41989 -3.79327
thorax 7.34131 -0.991692 -5.68886
lowerneck -26.5226 18.2419 0.110473
upperneck 19.6312 31.135 -19.6338
head 14.7182 11.1969 -0.670944
rclavicle 6.40087e-014 7.68458e-014
rhumerus -48.15 16.8047 -69.0223
rradius 114.859
rwrist -10.4643
rhand -59.544 -72.2443
rfingers 7.12502
rthumb -31.7176 99.5065
lclavicle 6.40087e-014 7.68458e-014
lhumerus -29.4157 -16.1936 43.3133
lradius 103.667
lwrist 19.0305
lhand -53.7224 95.1478
lfingers 7.12502
lthumb -26.1576 -66.9298
rfemur -15.03 -8.3766 17.2711
rtibia 33.9673
rfoot -23.1425 -0.601565
rtoes -6.94964
lfemur -22.128 11.9494 -18.2067
ltibia 45.2046
lfoot -26.4966 6.48353
ltoes -23.6357
207
root -8.82045 2.89308 1.35018 146.099 84.0255 52.4918
lowerback -11.0096 -2.04341 2.15499
upperback 1.083 -2.69047 -3.72309
thorax 7.05377 -1.12871 -5.62318
lowerneck -26.898 18.2115 -0.205905
upperneck 20.2903 31.3186 -19.3006
head 14.9682 11.1651 -0.447757
rclavicle 3.18055e-014 -4.32978e-015
rhumerus -46.8005 16.7026 -68.833
rradius 114.49
rwrist -10.5841
rhand -59.1527 -71.4541
rfingers 7.12502
rthumb -31.3449 98.7893
lclavicle 3.18055e-014 -4.32978e-015
lhumerus -28.4603 -16.2542 42.7351
lradius 103.38
lwrist 19.4205
lhand -53.8739 96.1222
lfingers 7.12502
lthumb -26.3026 -67.9258
rfemur -14.599 -8.45503 17.4257
rtibia 34.3781
rfoot -23.0485 -0.3466
rtoes -6.08846
lfemur -21.8745 11.8199 -17.7094
ltibia 45.8116
lfoot -26.2969 6.55333
ltoes -24.6264
208
root -8.85165 2.98868 1.3685 149.457 84.19 56.7089
lowerback -9.79647 -2.21807 2.32743
upperback 1.52653 -2.93678 -3.68261
thorax 6.8025 -1.24528 -5.66247
lowerneck -27.1497 18.2692 -0.11488
upperneck 20.7634 31.5481 -19.3209
head 15.2801 11.1627 -0.379435
rclavicle 3.53837e-014 9.83984e-015
rhumerus -45.4006 16.5618 -68.8727
rradius 114.067
rwrist -10.679
rhand -58.9869 -70.9718
rfingers 7.12502
rthumb -31.1868 98.3375
lclavicle 3.53837e-014 9.83984e-015
lhumerus -27.5795 -16.2474 42.1106
lradius 103.149
lwrist 19.6553
lhand -53.9011 96.608
lfingers 7.12502
lthumb -26.3287 -68.4154
rfemur -14.2878 -8.29832 17.7768
rtibia 34.8935
rfoot -23.3741 0.540433
rtoes -5.91682
lfemur -21.632 11.6378 -16.9715
ltibia 46.3767
lfoot -26.1883 6.36866
ltoes -24.6354
209
root -8.88787 3.08286 1.38423 152.466 84.2528 60.2798
lowerback -8.89251 -2.37663 2.36429
upperback 1.8258 -3.14014 -3.67581
thorax 6.58063 -1.34513 -5.66143
lowerneck -27.2383 18.3372 0.0697959
upperneck 21.2267 31.7685 -19.3929
head 15.5894 11.1695 -0.352808
rclavicle -4.69132e-014 -1.41758e-014
rhumerus -44.2587 16.5142 -68.8838
rradius 113.625
rwrist -10.9575
rhand -59.3351 -71.3832
rfingers 7.12502
rthumb -31.5186 98.6845
lclavicle -4.69132e-014 -1.41758e-014
lhumerus -26.7676 -16.4518 41.4664
lradius 102.892
lwrist 19.9275
lhand -53.8451 97.1704
lfingers 7.12502
lthumb -26.2751 -68.9699
rfemur -14.3648 -8.5861 18.0293
rtibia 35.5093
rfoot -23.4921 1.09203
rtoes -6.21891
lfemur -21.7214 11.3897 -16.4351
ltibia 46.879
lfoot -26.1859 6.05443
ltoes -23.4932
210
root -8.92295 3.18642 1.39833 147.161 83.8379 55.6375
lowerback -7.66393 -2.57564 1.39051
upperback 2.07725 -3.26334 -3.89386
thorax 6.17204 -1.4395 -5.28842
lowerneck -27.3784 18.3585 -0.0905028
upperneck 21.8319 31.9391 -19.0585
head 15.8002 11.1657 -0.164839
rclavicle -5.96354e-015 -5.65542e-014
rhumerus -43.0892 16.4539 -68.8797
rradius 112.982
rwrist -11.0252
rhand -59.4338 -71.8188
rfingers 7.12502
rthumb -31.6126 99.1016
lclavicle -5.96354e-015 -5.65542e-014
lhumerus -25.9774 -16.7418 40.8533
lradius 102.632
lwrist 20.2732
lhand -53.7095 97.7902
lfingers 7.12502
lthumb -26.1452 -69.5704
rfemur -14.4302 -8.95959 17.1848
rtibia 36.2748
rfoot -23.0164 0.675555
rtoes -5.94494
lfemur -21.6378 11.1313 -16.9841
ltibia 47.2801
lfoot -26.1687 5.93967
ltoes -22.4351
211
root -8.95221 3.29802 1.41323 141.348 83.3393 50.6658
lowerback -6.13282 -2.76845 0.355674
upperback 2.35188 -3.39375 -4.186
thorax 5.61746 -1.5358 -4.93975
lowerneck -27.3697 18.3683 -0.252891
upperneck 22.0179 32.0021 -18.8925
head 15.818 11.1708 -0.0773989
rclavicle -1.59028e-014 1.963e-015
rhumerus -41.7933 16.3751 -68.8813
rradius 112.294
rwrist -10.825
rhand -58.9323 -72.18
rfingers 7.12502
rthumb -31.1349 99.5557
lclavicle -1.59028e-014 1.963e-015
lhumerus -25.1906 -16.7945 40.2942
lradius 102.403
lwrist 20.4154
lhand -53.547 97.7585
lfingers 7.12502
lthumb -25.9897 -69.5158
rfemur -14.3298 -8.19185 16.2554
rtibia 37.1062
rfoot -22.6695 -0.128691
rtoes -4.66362
lfemur -21.3412 10.8475 -17.6279
ltibia 47.6695
lfoot -25.9405 5.83731
ltoes -21.8267
212
root -8.98157 3.40793 1.42964 140.391 83.2633 50.3484
lowerback -4.924 -2.89598 0.0970054
upperback 2.61095 -3.53231 -4.38838
thorax 5.19224 -1.60833 -4.95288
lowerneck -27.6062 18.45 -0.454073
upperneck 22.3845 32.1616 -18.4805
head 15.9037 11.1975 0.143889
rclavicle 5.28767e-014 3.32467e-014
rhumerus -40.6267 16.3095 -68.9531
rradius 111.753
rwrist -10.697
rhand -58.5537 -72.8703
rfingers 7.12502
rthumb -30.7739 100.315
lclavicle 5.28767e-014 3.32467e-014
lhumerus -24.1959 -16.7781 39.529
lradius 102.09
lwrist 20.5681
lhand -53.3631 97.0928
lfingers 7.12502
lthumb -25.8136 -68.8243
rfemur -14.4931 -7.23471 16.1174
rtibia 37.9231
rfoot -22.6851 -0.315737
rtoes -3.75279
lfemur -21.3181 10.6581 -17.5835
ltibia 48.1155
lfoot -25.4771 5.76618
ltoes -21.154
213
root -9.01749 3.51411 1.44076 141.833 83.3545 52.3208
lowerback -3.84301 -2.97753 0.163095
upperback 2.81076 -3.64822 -4.47721
thorax 4.76665 -1.66388 -5.03022
lowerneck -27.7652 18.4979 -0.518532
upperneck 22.8438 32.3032 -18.1888
head 16.0757 11.202 0.302839
rclavicle -3.85642e-014 -5.11622e-014
rhumerus -39.6284 16.3013 -68.8937
rradius 111.335
rwrist -10.8922
rhand -58.4598 -73.2717
rfingers 7.12502
rthumb -30.6844 100.733
lclavicle -3.85642e-014 -5.11622e-014
lhumerus -23.1336 -16.9014 38.6777
lradius 101.759
lwrist 20.7446
lhand -53.2296 96.8454
lfingers 7.12502
lthumb -25.6856 -68.5584
rfemur -14.7542 -6.92457 16.2726
rtibia 38.7049
rfoot -22.6147 -0.304194
rtoes -3.50531
lfemur -21.4737 10.4753 -17.2639
ltibia 48.6167
lfoot -25.0768 5.77429
ltoes -20.1139
214
root -9.05643 3.61538 1.44342 143.6 83.3278 54.7244
lowerback -2.69759 -3.07401 0.185388
upperback 3.04211 -3.78417 -4.4841
thorax 4.34363 -1.73187 -4.993
lowerneck -27.7439 18.5573 -0.235734
upperneck 23.268 32.6777 -18.7319
head 16.532 11.2249 0.199893
rclavicle 7.196e-014 4.79568e-014
rhumerus -38.5103 16.2966 -68.6159
rradius 110.955
rwrist -11.2453
rhand -58.4183 -73.2057
rfingers 7.12502
rthumb -30.6449 100.674
lclavicle 7.196e-014 4.79568e-014
lhumerus -22.1102 -16.9029 38.0773
lradius 101.458
lwrist 20.7114
lhand -53.1848 96.7752
lfingers 7.12502
lthumb -25.6428 -68.4819
rfemur -14.7964 -6.90534 16.3371
rtibia 39.4147
rfoot -22.3093 -0.796509
rtoes -3.20733
lfemur -21.5529 10.1589 -17.0263
ltibia 49.1876
lfoot -24.9274 5.72846
ltoes -18.9312
215
root -9.09363 3.71671 1.44801 140.874 82.8971 52.7792
lowerback -1.47243 -3.20938 -0.450044
upperback 3.35637 -3.92115 -4.67841
thorax 3.9947 -1.80752 -4.77884
lowerneck -27.1334 18.5527 0.441474
upperneck 22.7784 32.9136 -20.3608
head 16.816 11.2627 -0.407633
rclavicle 4.37326e-015 1.87852e-014
rhumerus -37.2487 16.2946 -68.4142
rradius 110.51
rwrist -11.583
rhand -58.5655 -72.971
rfingers 7.12502
rthumb -30.7852 100.413
lclavicle 4.37326e-015 1.87852e-014
lhumerus -21.038 -16.7877 37.4826
lradius 101.075
lwrist 20.8445
lhand -53.2162 95.8802
lfingers 7.12502
lthumb -25.6728 -67.5913
rfemur -14.6547 -7.0913 15.6619
rtibia 40.041
rfoot -22.0658 -1.00321
rtoes -3.70602
lfemur -21.4101 9.80271 -17.5065
ltibia 49.7661
lfoot -24.8941 5.88952
ltoes -18.7747
216
root -9.12873 3.82127 1.45397 140.199 82.7406 52.9456
lowerback -0.23239 -3.29751 -0.668467
upperback 3.74958 -4.02053 -4.84956
thorax 3.69828 -1.85009 -4.77426
lowerneck -27.1448 18.563 0.468904
upperneck 23.0503 33.0106 -20.3418
head 16.9682 11.2567 -0.377132
rclavicle 1.59028e-015 -1.78906e-015
rhumerus -36.5937 16.201 -68.065
rradius 110.792
rwrist -12.1923
rhand -58.3256 -72.8695
rfingers 7.12502
rthumb -30.5564 100.355
lclavicle 1.59028e-015 -1.78906e-015
lhumerus -19.7867 -16.6817 36.6515
lradius 100.746
lwrist 21.4737
lhand -53.1948 94.7168
lfingers 7.12502
lthumb -25.6523 -66.4249
rfemur -14.4461 -7.11675 15.4157
rtibia 40.5575
rfoot -22.0474 -0.738203
rtoes -4.03084
lfemur -21.2564 9.57141 -17.5666
ltibia 50.398
lfoot -24.8181 6.20292
ltoes -19.6412
217
root -9.16421 3.92439 1.45526 144.569 83.0522 58.1687
lowerback 1.03989 -3.37595 -0.0248308
upperback 4.1233 -4.14469 -4.82679
thorax 3.31469 -1.88922 -5.04611
lowerneck -27.4233 18.6085 0.5768
upperneck 23.5369 33.2155 -20.2654
head 17.3005 11.2484 -0.28061
rclavicle 1.86858e-014 6.7388e-014
rhumerus -35.2907 15.981 -67.8179
rradius 110.431
rwrist -12.718
rhand -57.7888 -73.0013
rfingers 7.12502
rthumb -30.0444 100.58
lclavicle 1.86858e-014 6.7388e-014
lhumerus -18.5441 -16.5 35.8747
lradius 100.505
lwrist 22.1095
lhand -53.0495 95.2846
lfingers 7.12502
lthumb -25.5131 -66.9728
rfemur -14.1949 -6.99611 16.0427
rtibia 41.0093
rfoot -22.0407 -0.506162
rtoes -3.07974
lfemur -21.204 9.48605 -16.7714
ltibia 51.1159
lfoot -24.5916 6.28721
ltoes -19.8104
218
root -9.20814 4.02561 1.45542 148.464 83.2163 62.9083
lowerback 2.20712 -3.47062 0.438691
upperback 4.52481 -4.26603 -4.78344
thorax 3.03419 -1.92895 -5.20213
lowerneck -27.8834 18.6332 0.420908
upperneck 24.4067 33.4872 -19.8062
head 17.7116 11.2239 0.0111268
rclavicle 9.66093e-014 7.13637e-014
rhumerus -34.0431 15.7725 -67.6317
rradius 110.026
rwrist -13.0725
rhand -57.8191 -73.2947
rfingers 7.12502
rthumb -30.0733 100.869
lclavicle 9.66093e-014 7.13637e-014
lhumerus -17.2479 -16.1172 35.32
lradius 100.073
lwrist 22.2201
lhand -53.0053 94.8952
lfingers 7.12502
lthumb -25.4708 -66.5773
rfemur -13.9086 -7.04046 16.5079
rtibia 41.4506
rfoot -21.7798 -0.685195
rtoes -2.25086
lfemur -21.1774 9.46825 -16.1551
ltibia 51.8782
lfoot -24.4213 6.28632
ltoes -19.4578
219
root -9.25447 4.12749 1.45863 150.453 83.2338 65.6738
lowerback 3.27968 -3.56202 0.588484
upperback 4.86518 -4.36958 -4.80058
thorax 2.76454 -1.96667 -5.24715
lowerneck -27.5983 18.5281 0.289325
upperneck 24.1507 33.3626 -20.0448
head 17.5531 11.1977 -0.122232
rclavicle 3.77691e-014 -6.75868e-015
rhumerus -32.8423 15.7361 -67.2373
rradius 109.544
rwrist -13.5915
rhand -58.0075 -73.8018
rfingers 7.12502
rthumb -30.253 101.343
lclavicle 3.77691e-014 -6.75868e-015
lhumerus -15.9812 -15.7735 34.7178
lradius 99.5707
lwrist 22.3882
lhand -53.0772 94.42
lfingers 7.12502
lthumb -25.5397 -66.112
rfemur -13.734 -7.15552 16.6869
rtibia 41.9262
rfoot -21.4955 -0.898204
rtoes -2.25507
lfemur -21.2263 9.46782 -15.8702
ltibia 52.6332
lfoot -24.4022 6.25318
ltoes -18.6753
